# xmcd
#
# Track frame offsets:
#   150
#   2755
#   23634
#   38521
#   59455
#   73131
#   85810
#   102886
#   120445
#   134594
#   153742
#   169471
#   185608
#   200432
#   213918
#
# Disc length: 3361 seconds
#
# Revision: 0
# Processed by: cddbd v1.5.2PL0 Copyright (c) Steve Scherf et al.
# Submitted via: uFREEDB ActiveX Control 1.5
#
DISCID=cf0d1f0f
DTITLE=Varios - 100 % caipira
DYEAR=1900
DGENRE=Country
TTITLE0=Admilson Porfirio - 100% Caipira
TTITLE1=Coral ecumênico LBV - Mãe Santíssima
TTITLE2=Berenice Azambuja - Eta Paixão
TTITLE3=Eduardo Costa - Coração Aberto
TTITLE4=Trio Parada Dura - Fuscão Preto
TTITLE5=Zé Henrique e Gabriel - Mala Amarela
TTITLE6=César e Paulinho - A vaca já foi pro brejo
TTITLE7=Abel e Caim -Três namoradas
TTITLE8=Dany e Diego - Vespeira
TTITLE9=Milionário e José Rico - Velho Candieiro
TTITLE10=Lucas e Luan - Mexe que é bom
TTITLE11=Ed e Fabio Cesar - Casa de caboclo
TTITLE12=Matogrosso e Mathias - Boate azul
TTITLE13=Grupo Rhaas - Vuco vuco
TTITLE14=Gigante do Brasil - Bens Materiais
EXTD=
EXTT0=
EXTT1=
EXTT2=
EXTT3=
EXTT4=
EXTT5=
EXTT6=
EXTT7=
EXTT8=
EXTT9=
EXTT10=
EXTT11=
EXTT12=
EXTT13=
EXTT14=
PLAYORDER=
